<svg width="214" height="262" viewBox="0 0 214 262" fill="none" xmlns="http://www.w3.org/2000/svg">
<g clip-path="url(#clip0)">
<path d="M24.3 169C9.10003 178.1 -9.19997 202.2 13.3 228.6C33.6 252.4 68.6 245.1 99.9 248.7C129.5 252.1 139.6 258 142.6 237.6C145.6 217.2 111 112 24.3 169Z" fill="#F4F4F4" stroke="black" stroke-width="4" stroke-linecap="round" stroke-linejoin="round"/>
<path d="M189.5 168C200.2 179.8 218.1 187.9 208.4 217.4C198.7 246.9 138.8 242.6 128.4 242.6C110.1 242.6 113.9 259.8 95.6001 259.8C85.4001 259.8 65.7001 249.3 75.5001 230.5C85.3001 214.8 95.6001 224.752 101.605 207.598" fill="#F4F4F4"/>
<path d="M189.5 168C200.2 179.8 218.1 187.9 208.4 217.4C198.7 246.9 138.8 242.6 128.4 242.6C110.1 242.6 113.9 259.8 95.6001 259.8C85.4001 259.8 65.7001 249.3 75.5001 230.5C85.3001 214.8 95.6001 224.752 101.605 207.598" stroke="black" stroke-width="2" stroke-linecap="round" stroke-linejoin="round"/>
<path d="M182.3 126.9C163.9 92.7 130.9 95.8 105.9 96.4C80.9 95.7 47.8 92.6 29.5001 126.9C9.60005 163.9 31 213.5 68.2001 211.5C85.6001 211.5 103.5 199.5 103.5 164.5L103.8 162.3L103.9 164.2C103.9 197.7 126.2 207.4 143.6 207.4C180.8 209.4 202.1 163.9 182.3 126.9Z" fill="#F4F4F4" stroke="black" stroke-width="4"/>
<path d="M58.4 119C59.4 130 61.4 133 56.4 144.5C59.9 148 62.9 151.5 65.9 154.5" stroke="black" stroke-width="2" stroke-linecap="round" stroke-linejoin="round"/>
<path d="M53.9001 176.5C50.9001 170 57.4001 153.5 75.9001 151.5" stroke="black" stroke-width="2" stroke-linecap="round" stroke-linejoin="round"/>
<path d="M155.4 119C154.4 130 152.4 133 157.4 144.5C153.9 148 150.9 151.5 147.9 154.5" stroke="black" stroke-width="2" stroke-linecap="round" stroke-linejoin="round"/>
<path d="M159.9 176.5C162.9 170 156.4 153.5 137.9 151.5" stroke="black" stroke-width="2" stroke-linecap="round" stroke-linejoin="round"/>
<path d="M105.9 102.5C126 102.5 141.9 84.1 141.9 62C141.9 39.9 126 21.5 105.9 21.5C85.8 21.5 69.9 39.9 69.9 62C69.9 84.1 85.8 102.5 105.9 102.5Z" fill="#F4F4F4" stroke="black" stroke-width="4"/>
<path d="M106.252 1C55.8985 1 21 50.3161 21 63.4C21 76.4839 60.6846 79 106.252 79C148.629 79 193 71.4516 193 63.4C193 55.3484 156.606 1 106.252 1Z" fill="black" stroke="black" stroke-width="2"/>
<path d="M85.1875 12.7566C76.3386 12.7566 49.2001 26.9157 51.4124 37.83C53.6247 48.7442 86.4889 20.9676 85.1875 12.7566Z" fill="#F4F4F4"/>
<path d="M133.428 164.508C144.354 165.493 142.9 159.636 142.9 155.636C142.9 145.136 139.4 129 105.4 129C71.4 129 133.428 154.508 133.428 164.508Z" fill="#F4F4F4" stroke="black" stroke-width="4"/>
<path d="M137.578 146.313C140.028 144 139.915 135.436 134.158 133.804C127.68 135.309 125.336 125.681 122.887 127.993C120.437 130.306 120.948 137.582 125.287 142.178C129.626 146.774 135.129 148.625 137.578 146.313Z" fill="black"/>
<path d="M145.998 150.208C145.998 144.469 138.907 154.082 132.03 139.817C124.316 139.817 118.062 144.469 118.062 150.208C118.062 155.946 124.316 160.598 132.03 160.598C139.745 160.598 145.998 155.946 145.998 150.208Z" fill="black"/>
<path d="M123.6 132.258C123.7 136.487 110.3 136.238 105.8 136.487C101.3 136.735 97.5 133.502 97.4 129.274C97.3 125.046 101.036 127.398 106.1 123.929C111.164 120.46 123.5 128.03 123.6 132.258Z" fill="black"/>
<path d="M99.6 125.5C101.6 128.3 92.9 136 89.2 138.6C85.5 141.2 81 141.1 79 138.4C77 135.6 79.3 132.3 83 129.7C84.3 128.8 86.2 129 89.3 128.3C92.5 125.4 93.3 126.3 95.4 126.1C98.4 125.8 98.8 124.4 99.6 125.5Z" fill="black"/>
<path d="M113.4 86.5C107.5 89 104.3 89.3 98.4 86.5" stroke="black" stroke-width="2" stroke-linecap="round" stroke-linejoin="round"/>
<path d="M73.635 164.6C85.9652 164.6 127.82 164.887 134.9 164.6C134.9 154.1 136.4 129.6 102.4 129.6C68.4 129.6 61.3048 164.6 73.635 164.6Z" fill="#F4F4F4" stroke="black" stroke-width="4"/>
<path d="M82.0532 148.913C80.1772 145.252 83.6889 143.782 81.5498 135.097C82.0159 134.593 83.3063 133.497 84.7383 133.139C86.5283 132.691 83.2839 136.719 82.9483 139.572C82.6126 142.425 84.4065 153.506 82.0532 148.913Z" fill="black"/>
<path d="M92.7488 136.206C93.2432 134.978 92.3177 134.484 92.8815 131.569C92.7586 131.4 92.4185 131.032 92.0411 130.912C91.5693 130.761 92.4244 132.113 92.5129 133.071C92.6013 134.028 92.1285 137.748 92.7488 136.206Z" fill="black" stroke="black"/>
<path d="M115.781 138.361C116.998 139.578 115.991 135.037 115.991 132.58C115.796 132.369 115.256 131.91 114.657 131.76C113.908 131.573 115.266 133.258 115.406 134.452C115.547 135.646 114.564 137.144 115.781 138.361Z" fill="black" stroke="black"/>
<path d="M112.9 142.5C113.452 142.5 113.9 142.052 113.9 141.5C113.9 140.948 113.452 140.5 112.9 140.5C112.348 140.5 111.9 140.948 111.9 141.5C111.9 142.052 112.348 142.5 112.9 142.5Z" fill="black"/>
<path d="M87.9 146.5C88.4523 146.5 88.9 146.052 88.9 145.5C88.9 144.948 88.4523 144.5 87.9 144.5C87.3477 144.5 86.9 144.948 86.9 145.5C86.9 146.052 87.3477 146.5 87.9 146.5Z" fill="black"/>
<path d="M102.9 149.5C103.452 149.5 103.9 149.052 103.9 148.5C103.9 147.948 103.452 147.5 102.9 147.5C102.348 147.5 101.9 147.948 101.9 148.5C101.9 149.052 102.348 149.5 102.9 149.5Z" fill="black"/>
<path d="M117.9 152.5C118.452 152.5 118.9 152.052 118.9 151.5C118.9 150.948 118.452 150.5 117.9 150.5C117.348 150.5 116.9 150.948 116.9 151.5C116.9 152.052 117.348 152.5 117.9 152.5Z" fill="black"/>
<path d="M92.9 156.5C93.4523 156.5 93.9 156.052 93.9 155.5C93.9 154.948 93.4523 154.5 92.9 154.5C92.3477 154.5 91.9 154.948 91.9 155.5C91.9 156.052 92.3477 156.5 92.9 156.5Z" fill="black"/>
<path d="M78.9 157.5C79.4523 157.5 79.9 157.052 79.9 156.5C79.9 155.948 79.4523 155.5 78.9 155.5C78.3477 155.5 77.9 155.948 77.9 156.5C77.9 157.052 78.3477 157.5 78.9 157.5Z" fill="black"/>
<path d="M98.9 138.5C99.4523 138.5 99.9 138.052 99.9 137.5C99.9 136.948 99.4523 136.5 98.9 136.5C98.3477 136.5 97.9 136.948 97.9 137.5C97.9 138.052 98.3477 138.5 98.9 138.5Z" fill="black"/>
</g>
<defs>
<clipPath id="clip0">
<rect width="212.4" height="261.8" fill="white" transform="translate(0.800049)"/>
</clipPath>
</defs>
</svg>
